<svg width="172" height="20" viewBox="0 0 172 20" fill="none" xmlns="http://www.w3.org/2000/svg">
<path fill-rule="evenodd" clip-rule="evenodd" d="M36.2229 19.0496C36.2229 19.472 36.0065 19.6832 35.5738 19.6832H27.9509C27.7667 19.6832 27.6171 19.6304 27.502 19.5248C27.387 19.4192 27.3294 19.27 27.3294 19.0771C27.3294 18.9118 27.3686 18.7787 27.4468 18.6777C27.5251 18.5767 27.647 18.494 27.8128 18.4298L28.4066 18.2507C28.5539 18.2048 28.669 18.1175 28.7518 17.989C28.8347 17.8604 28.8761 17.6768 28.8761 17.438V9.47658C28.8761 9.34803 28.8439 9.24013 28.7794 9.15289C28.715 9.06566 28.5953 8.98531 28.4204 8.91185L27.6194 8.65014C27.4077 8.54913 27.2558 8.44123 27.1637 8.32645C27.0716 8.21166 27.0256 8.07163 27.0256 7.90634C27.0256 7.74105 27.0832 7.6056 27.1982 7.5L27.2434 7.46287C27.3537 7.38202 27.4974 7.3416 27.6747 7.3416H28.8865L28.877 7.26111C28.8511 7.10012 28.7864 6.94559 28.6828 6.79752C28.5447 6.60009 28.3882 6.37741 28.2132 6.12948C28.0383 5.88154 27.8818 5.5854 27.7437 5.24105C27.6056 4.89669 27.5366 4.47199 27.5366 3.96694C27.5366 2.764 27.9509 1.80211 28.7794 1.08127C29.608 0.360422 30.7865 0 32.3147 0C33.2998 0 34.1169 0.156107 34.766 0.46832C35.415 0.780533 35.9007 1.19605 36.2229 1.71488C36.5451 2.2337 36.7062 2.80073 36.7062 3.41598C36.7062 4.14141 36.5152 4.68549 36.1331 5.04821C35.751 5.41093 35.2608 5.59229 34.6624 5.59229C33.9995 5.59229 33.4655 5.38108 33.0605 4.95868C32.6554 4.53627 32.4528 3.97612 32.4528 3.27824V2.05234C32.4528 1.73095 32.3884 1.49449 32.2595 1.34298C32.1306 1.19146 31.9327 1.1157 31.6657 1.1157C31.325 1.1157 31.0673 1.23049 30.8923 1.46006C30.7174 1.68962 30.6299 2.0202 30.6299 2.45179C30.6299 2.89256 30.7335 3.30579 30.9407 3.69146C31.1478 4.07714 31.4033 4.43756 31.7071 4.77273C32.0109 5.1079 32.3147 5.42929 32.6185 5.73691C32.9224 6.04454 33.1778 6.34757 33.385 6.64601L33.444 6.73547C33.5559 6.91426 33.6305 7.09222 33.6677 7.26935L33.6804 7.3416H35.7257C35.9375 7.3416 36.1009 7.38522 36.216 7.47245C36.3311 7.55969 36.3886 7.69513 36.3886 7.87879C36.3886 8.15427 36.2689 8.37925 36.0295 8.55372C35.7902 8.72819 35.4127 8.81543 34.8971 8.81543H33.9167V17.3967C33.9167 17.6538 33.9558 17.8512 34.034 17.989C34.1123 18.1267 34.2389 18.2094 34.4138 18.2369L35.6014 18.416C35.8132 18.4435 35.9697 18.5101 36.071 18.6157C36.1722 18.7213 36.2229 18.8659 36.2229 19.0496ZM9.03155 19.3664C8.20297 19.7612 7.23629 19.9587 6.13151 19.9587C4.96229 19.9587 3.91505 19.7153 2.9898 19.2287C2.06455 18.742 1.33494 18.0372 0.800963 17.1143C0.266988 16.1915 0 15.0689 0 13.7466C0 12.4702 0.278496 11.3292 0.835488 10.3237C1.39248 9.31818 2.16813 8.52388 3.16242 7.94077C4.15672 7.35767 5.31674 7.06612 6.64247 7.06612C7.77487 7.06612 8.73004 7.23141 9.50799 7.56198C10.2859 7.89256 10.8798 8.34022 11.2894 8.90496C11.6991 9.4697 11.904 10.101 11.904 10.7989C11.904 11.5335 11.6899 12.1097 11.2618 12.5275C10.8337 12.9454 10.2514 13.1543 9.51489 13.1543C8.75996 13.1543 8.18686 12.9408 7.79558 12.5138C7.40431 12.0868 7.20867 11.5014 7.20867 10.7576V9.87603C7.20867 9.42608 7.12581 9.08632 6.9601 8.85675C6.79438 8.62718 6.55961 8.5124 6.2558 8.5124C5.95199 8.5124 5.67809 8.63407 5.43412 8.87741C5.19015 9.12075 5.00142 9.48577 4.86792 9.97245C4.73443 10.4591 4.66768 11.0606 4.66768 11.7769C4.66768 12.8053 4.82189 13.6685 5.13031 14.3664C5.43873 15.0643 5.85992 15.5877 6.3939 15.9366C6.92787 16.2856 7.5355 16.4601 8.21678 16.4601C8.89806 16.4601 9.46886 16.3613 9.92918 16.1639C10.3895 15.9665 10.744 15.6336 10.9925 15.1653C11.1306 15.0367 11.2388 14.9541 11.3171 14.9174C11.3953 14.8806 11.4713 14.8623 11.5449 14.8623C11.637 14.8714 11.7129 14.9151 11.7728 14.9931C11.8326 15.0712 11.8579 15.1928 11.8487 15.3581C11.7751 16.258 11.4943 17.0523 11.0063 17.741C10.5184 18.4298 9.86014 18.9715 9.03155 19.3664ZM23.0691 19.0909C22.0334 19.6511 20.8297 19.9311 19.4579 19.9311C18.1229 19.9311 16.9514 19.6579 15.9433 19.1116C14.9352 18.5652 14.1504 17.8099 13.5888 16.8457C13.0272 15.8815 12.7464 14.7658 12.7464 13.4986C12.7464 12.2865 13.041 11.1961 13.6302 10.2273C14.2194 9.25849 15.0342 8.48944 16.0745 7.92011C17.1148 7.35078 18.3117 7.06612 19.665 7.06612C21.0092 7.06612 22.183 7.3416 23.1865 7.89256C24.19 8.44353 24.9726 9.20569 25.5342 10.1791C26.0958 11.1524 26.3766 12.2773 26.3766 13.5537C26.3766 14.7658 26.0842 15.8517 25.4996 16.8113C24.915 17.7709 24.1049 18.5308 23.0691 19.0909ZM20.5074 18.4986C20.222 18.5537 19.9435 18.4298 19.6719 18.1267C19.4003 17.8237 19.1426 17.3141 18.8986 16.5978C18.6546 15.8815 18.4222 14.9403 18.2012 13.7741C17.9895 12.6079 17.8698 11.6483 17.8422 10.8953C17.8145 10.1423 17.8698 9.573 18.0079 9.18733C18.146 8.80165 18.3577 8.57668 18.6431 8.5124C18.9285 8.4573 19.207 8.58127 19.4786 8.8843C19.7502 9.18733 20.0103 9.69697 20.2589 10.4132C20.5074 11.1295 20.7422 12.0707 20.9631 13.2369C21.1841 14.4031 21.3061 15.365 21.3291 16.1226C21.3521 16.8802 21.2923 17.4518 21.1496 17.8375C21.0069 18.2231 20.7928 18.4435 20.5074 18.4986ZM45.213 19.6832C45.6457 19.6832 45.8621 19.472 45.8621 19.0496C45.8621 18.8659 45.8114 18.7213 45.7102 18.6157C45.6089 18.5101 45.4524 18.4435 45.2406 18.416L44.053 18.2369C43.8781 18.2094 43.7515 18.1267 43.6732 17.989C43.595 17.8512 43.5558 17.6538 43.5558 17.3967V8.81543H44.5363C45.0519 8.81543 45.4294 8.72819 45.6687 8.55372C45.9081 8.37925 46.0278 8.15427 46.0278 7.87879C46.0278 7.69513 45.9702 7.55969 45.8552 7.47245C45.7401 7.38522 45.5767 7.3416 45.3649 7.3416H43.3195L43.3069 7.26935C43.2696 7.09222 43.1951 6.91426 43.0832 6.73547L43.0242 6.64601C42.817 6.34757 42.5615 6.04454 42.2577 5.73691C41.9539 5.42929 41.6501 5.1079 41.3463 4.77273C41.0425 4.43756 40.787 4.07714 40.5798 3.69146C40.3727 3.30579 40.2691 2.89256 40.2691 2.45179C40.2691 2.0202 40.3566 1.68962 40.5315 1.46006C40.7064 1.23049 40.9642 1.1157 41.3049 1.1157C41.5718 1.1157 41.7698 1.19146 41.8987 1.34298C42.0276 1.49449 42.092 1.73095 42.092 2.05234V3.27824C42.092 3.97612 42.2946 4.53627 42.6996 4.95868C43.1047 5.38108 43.6387 5.59229 44.3016 5.59229C44.9 5.59229 45.3902 5.41093 45.7723 5.04821C46.1544 4.68549 46.3454 4.14141 46.3454 3.41598C46.3454 2.80073 46.1843 2.2337 45.8621 1.71488C45.5398 1.19605 45.0542 0.780533 44.4051 0.46832C43.7561 0.156107 42.939 0 41.9539 0C40.4256 0 39.2472 0.360422 38.4186 1.08127C37.59 1.80211 37.1758 2.764 37.1758 3.96694C37.1758 4.47199 37.2448 4.89669 37.3829 5.24105C37.521 5.5854 37.6775 5.88154 37.8524 6.12948C38.0274 6.37741 38.1839 6.60009 38.322 6.79752C38.4255 6.94559 38.4903 7.10012 38.5162 7.26111L38.5257 7.3416H37.3139C37.1366 7.3416 36.9929 7.38202 36.8826 7.46287L36.8374 7.5C36.7223 7.6056 36.6648 7.74105 36.6648 7.90634C36.6648 8.07163 36.7108 8.21166 36.8029 8.32645C36.895 8.44123 37.0469 8.54913 37.2586 8.65014L38.0596 8.91185C38.2345 8.98531 38.3542 9.06566 38.4186 9.15289C38.4831 9.24013 38.5153 9.34803 38.5153 9.47658V17.438C38.5153 17.6768 38.4739 17.8604 38.391 17.989C38.3082 18.1175 38.1931 18.2048 38.0458 18.2507L37.452 18.4298C37.2862 18.494 37.1642 18.5767 37.086 18.6777C37.0077 18.7787 36.9686 18.9118 36.9686 19.0771C36.9686 19.27 37.0261 19.4192 37.1412 19.5248C37.2563 19.6304 37.4059 19.6832 37.59 19.6832H45.213ZM56.026 19.2837C55.133 19.7337 54.1019 19.9587 52.9326 19.9587C51.6437 19.9587 50.5113 19.6947 49.5354 19.1667C48.5596 18.6387 47.7977 17.8994 47.2499 16.949C46.7022 15.9986 46.4283 14.899 46.4283 13.6501C46.4283 12.337 46.6929 11.1869 47.2223 10.1997C47.7517 9.21258 48.5181 8.44353 49.5216 7.89256C50.5251 7.3416 51.7312 7.06612 53.1398 7.06612C54.3366 7.06612 55.3677 7.29798 56.2332 7.76171C57.0986 8.22544 57.7637 8.85445 58.2287 9.64876C58.6936 10.4431 58.9261 11.3269 58.9261 12.3003C58.9261 12.7227 58.811 13.0556 58.5808 13.2989L58.5259 13.3529C58.2991 13.5602 57.9859 13.6639 57.5865 13.6639H51.2736L51.2871 13.7275C51.4546 14.4837 51.7407 15.0892 52.1455 15.5441C52.836 16.32 53.7566 16.708 54.9074 16.708C55.6439 16.708 56.2953 16.5427 56.8615 16.2121C57.4277 15.8815 57.8075 15.4224 58.0008 14.8347C58.1113 14.7153 58.2102 14.635 58.2977 14.5937C58.3852 14.5523 58.4611 14.5317 58.5256 14.5317C58.6176 14.5317 58.6959 14.5684 58.7603 14.6419C58.8248 14.7153 58.857 14.8393 58.857 15.0138C58.857 15.9137 58.6084 16.7378 58.1113 17.4862C57.6141 18.2346 56.919 18.8338 56.026 19.2837ZM51.1295 12.5598C51.1163 12.3485 51.1098 12.1288 51.1098 11.9008C51.1098 11.0376 51.1742 10.3581 51.3031 9.86226C51.432 9.36639 51.5977 9.01515 51.8002 8.80854C52.0028 8.60193 52.2283 8.49862 52.4769 8.49862C52.7991 8.49862 53.1007 8.76951 53.3815 9.3113C53.6623 9.85308 53.8027 10.753 53.8027 12.011C53.8027 12.3967 53.6277 12.5895 53.2779 12.5895H51.1312L51.1295 12.5598ZM69.2281 19.2837C68.3351 19.7337 67.3039 19.9587 66.1347 19.9587C64.8458 19.9587 63.7134 19.6947 62.7375 19.1667C61.7616 18.6387 60.9998 17.8994 60.452 16.949C59.9042 15.9986 59.6303 14.899 59.6303 13.6501C59.6303 12.337 59.895 11.1869 60.4244 10.1997C60.9538 9.21258 61.7202 8.44353 62.7237 7.89256C63.7272 7.3416 64.9333 7.06612 66.3419 7.06612C67.5387 7.06612 68.5698 7.29798 69.4352 7.76171C70.3007 8.22544 70.9658 8.85445 71.4307 9.64876C71.8957 10.4431 72.1281 11.3269 72.1281 12.3003C72.1281 12.7227 72.0131 13.0556 71.7829 13.2989L71.728 13.3529C71.5011 13.5602 71.188 13.6639 70.7886 13.6639H64.4756L64.4892 13.7275C64.6567 14.4837 64.9428 15.0892 65.3476 15.5441C66.0381 16.32 66.9587 16.708 68.1095 16.708C68.846 16.708 69.4974 16.5427 70.0636 16.2121C70.6298 15.8815 71.0096 15.4224 71.2029 14.8347C71.3134 14.7153 71.4123 14.635 71.4998 14.5937C71.5873 14.5523 71.6632 14.5317 71.7277 14.5317C71.8197 14.5317 71.898 14.5684 71.9624 14.6419C72.0269 14.7153 72.0591 14.8393 72.0591 15.0138C72.0591 15.9137 71.8105 16.7378 71.3134 17.4862C70.8162 18.2346 70.1211 18.8338 69.2281 19.2837ZM64.3316 12.5598C64.3184 12.3485 64.3118 12.1288 64.3118 11.9008C64.3118 11.0376 64.3763 10.3581 64.5052 9.86226C64.6341 9.36639 64.7998 9.01515 65.0023 8.80854C65.2049 8.60193 65.4304 8.49862 65.679 8.49862C66.0012 8.49862 66.3027 8.76951 66.5835 9.3113C66.8643 9.85308 67.0047 10.753 67.0047 12.011C67.0047 12.3967 66.8298 12.5895 66.48 12.5895H64.3333L64.3316 12.5598ZM81.0009 19.511C80.8858 19.6258 80.7178 19.6832 80.4968 19.6832H73.592C73.3894 19.6832 73.2306 19.6281 73.1155 19.5179C73.0005 19.4077 72.9429 19.2562 72.9429 19.0634C72.9429 18.9164 72.9774 18.7948 73.0465 18.6983C73.1155 18.6019 73.2099 18.5124 73.3296 18.4298L73.6472 18.3058C73.7669 18.2507 73.8497 18.1635 73.8958 18.0441C73.9418 17.9247 73.9648 17.7273 73.9648 17.4518V10.4545C73.9648 10.2342 73.9395 10.0758 73.8889 9.97934C73.8382 9.88292 73.7531 9.80716 73.6334 9.75207L73.2743 9.71074C73.1455 9.63728 73.0511 9.55923 72.9912 9.47658C72.9314 9.39394 72.9015 9.28834 72.9015 9.15978C72.9015 9.01286 72.9475 8.882 73.0396 8.76722C73.1316 8.65243 73.2882 8.55372 73.5091 8.47108L77.4311 7.35537C77.6612 7.26354 77.8546 7.19927 78.0111 7.16253C78.1676 7.1258 78.3011 7.10744 78.4116 7.10744C78.5681 7.10744 78.6854 7.16253 78.7637 7.27273L78.7889 7.31269C78.8534 7.42787 78.898 7.61198 78.9225 7.86501L79.0276 10.0054L79.0516 9.92635C79.0983 9.77726 79.1496 9.63422 79.2056 9.49725C79.5417 8.67539 79.9859 8.06474 80.5383 7.66529C81.0906 7.26584 81.6937 7.06612 82.3473 7.06612C83.1391 7.06612 83.7467 7.32782 84.1702 7.85124C84.5937 8.37466 84.8055 9.16896 84.8055 10.2342C84.8055 11.2902 84.5845 12.0661 84.1426 12.562C83.7007 13.0579 83.1299 13.3058 82.4302 13.3058C81.7489 13.3058 81.2449 13.1359 80.918 12.7961C80.5912 12.4564 80.4186 11.9743 80.4002 11.3499L80.3863 10.7989C80.3771 10.5877 80.3357 10.4224 80.2621 10.303C80.1884 10.1837 80.0687 10.124 79.903 10.124C79.7373 10.124 79.5923 10.2089 79.468 10.3788C79.3437 10.5487 79.2493 10.8081 79.1849 11.157C79.1205 11.506 79.0882 11.9513 79.0882 12.4931V17.3416C79.0882 17.5987 79.1297 17.803 79.2125 17.9545C79.2954 18.1061 79.4243 18.2002 79.5992 18.2369L80.6349 18.4435C80.8283 18.4711 80.9664 18.5422 81.0492 18.657C81.1321 18.7718 81.1735 18.9073 81.1735 19.0634C81.1735 19.247 81.116 19.3962 81.0009 19.511ZM92.0418 19.9311C93.4135 19.9311 94.6173 19.6511 95.653 19.0909C96.6887 18.5308 97.4989 17.7709 98.0835 16.8113C98.6681 15.8517 98.9604 14.7658 98.9604 13.5537C98.9604 12.2773 98.6796 11.1524 98.118 10.1791C97.5564 9.20569 96.7739 8.44353 95.7704 7.89256C94.7669 7.3416 93.593 7.06612 92.2489 7.06612C90.8955 7.06612 89.6987 7.35078 88.6584 7.92011C87.618 8.48944 86.8033 9.25849 86.2141 10.2273C85.6248 11.1961 85.3302 12.2865 85.3302 13.4986C85.3302 14.7658 85.611 15.8815 86.1726 16.8457C86.7342 17.8099 87.5191 18.5652 88.5272 19.1116C89.5353 19.6579 90.7068 19.9311 92.0418 19.9311ZM92.2558 18.1267C92.5274 18.4298 92.8059 18.5537 93.0913 18.4986C93.3767 18.4435 93.5907 18.2231 93.7334 17.8375C93.8761 17.4518 93.936 16.8802 93.913 16.1226C93.8899 15.365 93.768 14.4031 93.547 13.2369C93.326 12.0707 93.0913 11.1295 92.8427 10.4132C92.5941 9.69697 92.3341 9.18733 92.0625 8.8843C91.7909 8.58127 91.5124 8.4573 91.227 8.5124C90.9416 8.57668 90.7298 8.80165 90.5917 9.18733C90.4536 9.573 90.3984 10.1423 90.426 10.8953C90.4536 11.6483 90.5733 12.6079 90.7851 13.7741C91.006 14.9403 91.2385 15.8815 91.4825 16.5978C91.7264 17.3141 91.9842 17.8237 92.2558 18.1267ZM109.912 19.9587C110.685 19.9587 111.32 19.8186 111.817 19.5386C112.314 19.2585 112.685 18.9256 112.929 18.5399C113.173 18.1543 113.295 17.8007 113.295 17.4793C113.295 17.3416 113.265 17.2268 113.205 17.135C113.145 17.0432 113.065 16.9972 112.963 16.9972C112.917 16.9972 112.876 17.0064 112.839 17.0248C112.802 17.0432 112.77 17.0707 112.743 17.1074C112.696 17.2727 112.625 17.3875 112.528 17.4518C112.432 17.5161 112.328 17.5482 112.218 17.5482C112.061 17.5482 111.944 17.4954 111.866 17.3898C111.787 17.2842 111.748 17.1442 111.748 16.9697V10.8815C111.748 9.66942 111.332 8.73049 110.498 8.06474C109.665 7.39899 108.36 7.06612 106.583 7.06612C105.202 7.06612 104.049 7.236 103.124 7.57576C102.199 7.91552 101.504 8.3494 101.039 8.87741C100.574 9.40542 100.341 9.9449 100.341 10.4959C100.341 11.0836 100.514 11.5312 100.859 11.8388C101.204 12.1465 101.704 12.3003 102.358 12.3003C103.159 12.3003 103.789 12.0868 104.25 11.6598C104.71 11.2328 104.94 10.6795 104.94 10V8.95317C104.94 8.69605 105.021 8.49633 105.182 8.35399C105.343 8.21166 105.543 8.1405 105.782 8.1405C106.04 8.1405 106.245 8.23462 106.397 8.42286C106.549 8.61111 106.625 8.86593 106.625 9.18733L106.624 13.2025L106.551 13.1868C106.329 13.1446 106.072 13.1205 105.78 13.1145L105.631 13.1129C103.651 13.1129 102.176 13.4435 101.204 14.1047C100.233 14.7658 99.7476 15.6887 99.7476 16.8733C99.7476 17.7732 100.081 18.5124 100.749 19.0909C101.416 19.6694 102.302 19.9587 103.407 19.9587C104.236 19.9587 105.009 19.7911 105.727 19.4559C106.266 19.2045 106.703 18.8744 107.04 18.4655L107.059 18.4416L107.079 18.5032C107.185 18.801 107.38 19.0677 107.663 19.3035L107.75 19.3733C108.261 19.7635 108.982 19.9587 109.912 19.9587ZM105.154 17.3623C105.38 17.6607 105.677 17.8099 106.045 17.8099L106.124 17.8072C106.281 17.7965 106.433 17.7534 106.579 17.6781L106.624 17.653V14.1185L106.556 14.0978C106.399 14.0565 106.215 14.0358 106.003 14.0358C105.644 14.0358 105.357 14.2011 105.14 14.5317C104.924 14.8623 104.816 15.3489 104.816 15.9917C104.816 16.607 104.929 17.0638 105.154 17.3623ZM119.647 20C121.286 20 122.543 19.6281 123.417 18.8843C124.292 18.1405 124.729 17.1258 124.729 15.8402C124.729 15.0597 124.582 14.3756 124.287 13.7879C123.993 13.2002 123.477 12.6791 122.741 12.2245C122.004 11.77 120.969 11.3407 119.634 10.9366C119.136 10.7805 118.752 10.6221 118.48 10.4614C118.209 10.3007 118.022 10.1286 117.921 9.9449C117.82 9.76125 117.769 9.56382 117.769 9.35262C117.769 9.0404 117.884 8.78788 118.114 8.59504C118.345 8.4022 118.685 8.30579 119.136 8.30579C119.762 8.30579 120.354 8.5124 120.911 8.92562C121.468 9.33884 122.082 10.0459 122.755 11.0468C122.929 11.258 123.104 11.4118 123.279 11.5083C123.454 11.6047 123.62 11.6345 123.776 11.5978C123.97 11.5427 124.09 11.4164 124.136 11.219C124.182 11.0216 124.172 10.7392 124.108 10.3719L123.749 7.83747C123.712 7.57117 123.643 7.38292 123.542 7.27273C123.44 7.16253 123.307 7.10744 123.141 7.10744C122.994 7.10744 122.81 7.15794 122.589 7.25895C122.368 7.35996 122.149 7.46327 121.933 7.56887C121.717 7.67447 121.553 7.72727 121.443 7.72727C121.341 7.72727 121.192 7.67218 120.994 7.56198C120.796 7.45179 120.517 7.3416 120.158 7.23141C119.799 7.12121 119.334 7.06612 118.764 7.06612C117.815 7.06612 116.961 7.236 116.202 7.57576C115.442 7.91552 114.844 8.39991 114.407 9.02893C113.969 9.65794 113.751 10.4086 113.751 11.281C113.751 12.0523 113.914 12.7273 114.241 13.3058C114.568 13.8843 115.067 14.3802 115.739 14.7934C116.411 15.2066 117.258 15.5418 118.28 15.7989C118.943 15.9734 119.452 16.1501 119.806 16.3292C120.161 16.5083 120.405 16.7034 120.538 16.9146C120.672 17.1258 120.738 17.36 120.738 17.6171C120.738 17.9568 120.623 18.2369 120.393 18.4573C120.163 18.6777 119.813 18.7879 119.344 18.7879C118.902 18.7879 118.48 18.6938 118.08 18.5055C117.679 18.3173 117.268 17.9936 116.844 17.5344C116.421 17.0753 115.946 16.4463 115.422 15.6474C115.265 15.4362 115.088 15.2893 114.89 15.2066C114.692 15.124 114.492 15.1286 114.289 15.2204C114.096 15.2938 113.972 15.45 113.916 15.6887C113.861 15.9275 113.875 16.2213 113.958 16.5702L114.386 19.3113C114.45 19.5868 114.542 19.7704 114.662 19.8623C114.782 19.9541 114.911 20 115.049 20C115.205 20 115.396 19.9495 115.622 19.8485L116.299 19.5455C116.524 19.4444 116.706 19.3939 116.844 19.3939C116.982 19.3939 117.164 19.4444 117.389 19.5455C117.615 19.6465 117.91 19.7475 118.273 19.8485C118.637 19.9495 119.095 20 119.647 20ZM132.739 19.4835C132.131 19.8003 131.413 19.9587 130.585 19.9587C129.185 19.9587 128.133 19.6235 127.429 18.9532C126.725 18.2828 126.373 17.2268 126.373 15.7851V9.55923C126.373 9.36639 126.354 9.21947 126.317 9.11846C126.281 9.01745 126.189 8.9348 126.041 8.87052L125.392 8.66391C125.236 8.59045 125.134 8.50092 125.088 8.39532C125.042 8.28972 125.019 8.15886 125.019 8.00276C125.019 7.80992 125.088 7.65152 125.226 7.52755C125.365 7.40358 125.535 7.3416 125.737 7.3416H126.414C126.497 7.3416 126.584 7.30946 126.677 7.24518C126.769 7.1809 126.893 7.05234 127.049 6.8595L129.604 4.75207C129.788 4.53168 129.972 4.3641 130.157 4.24931C130.341 4.13453 130.525 4.07714 130.709 4.07714C130.921 4.07714 131.086 4.14141 131.206 4.26997L131.244 4.31555C131.338 4.44433 131.386 4.63116 131.386 4.87603L131.385 7.3416H134.272C134.474 7.3416 134.631 7.38522 134.741 7.47245C134.852 7.55969 134.907 7.69513 134.907 7.87879C134.907 8.1359 134.792 8.35629 134.562 8.53995L134.51 8.57789C134.278 8.73625 133.927 8.81543 133.457 8.81543H131.385L131.386 15.0964C131.386 15.7851 131.503 16.2948 131.738 16.6253C131.973 16.9559 132.315 17.1212 132.767 17.1212C132.96 17.1212 133.139 17.0799 133.305 16.9972C133.471 16.9146 133.62 16.8067 133.754 16.6736C133.887 16.5404 134.014 16.3912 134.134 16.2259C134.253 16.0606 134.369 15.8953 134.479 15.73C134.571 15.6933 134.652 15.7094 134.721 15.7782C134.79 15.8471 134.82 15.9871 134.81 16.1983C134.746 16.9421 134.537 17.5964 134.182 18.1612C133.828 18.7259 133.347 19.1667 132.739 19.4835ZM141.784 19.9587C142.954 19.9587 143.985 19.7337 144.878 19.2837C145.771 18.8338 146.466 18.2346 146.963 17.4862C147.46 16.7378 147.709 15.9137 147.709 15.0138C147.709 14.8393 147.676 14.7153 147.612 14.6419C147.548 14.5684 147.469 14.5317 147.377 14.5317C147.313 14.5317 147.237 14.5523 147.149 14.5937C147.062 14.635 146.963 14.7153 146.853 14.8347C146.659 15.4224 146.279 15.8815 145.713 16.2121C145.147 16.5427 144.496 16.708 143.759 16.708C142.608 16.708 141.688 16.32 140.997 15.5441C140.592 15.0892 140.306 14.4837 140.139 13.7275L140.125 13.6639H146.438C146.838 13.6639 147.151 13.5602 147.378 13.3529L147.433 13.2989C147.663 13.0556 147.778 12.7227 147.778 12.3003C147.778 11.3269 147.545 10.4431 147.08 9.64876C146.615 8.85445 145.95 8.22544 145.085 7.76171C144.219 7.29798 143.188 7.06612 141.991 7.06612C140.583 7.06612 139.377 7.3416 138.373 7.89256C137.37 8.44353 136.603 9.21258 136.074 10.1997C135.545 11.1869 135.28 12.337 135.28 13.6501C135.28 14.899 135.554 15.9986 136.102 16.949C136.649 17.8994 137.411 18.6387 138.387 19.1667C139.363 19.6947 140.495 19.9587 141.784 19.9587ZM139.961 11.9008C139.961 12.1288 139.968 12.3485 139.981 12.5598L139.983 12.5895H142.13C142.479 12.5895 142.654 12.3967 142.654 12.011C142.654 10.753 142.514 9.85308 142.233 9.3113C141.952 8.76951 141.651 8.49862 141.329 8.49862C141.08 8.49862 140.854 8.60193 140.652 8.80854C140.449 9.01515 140.284 9.36639 140.155 9.86226C140.026 10.3581 139.961 11.0376 139.961 11.9008ZM156.146 19.6832C156.367 19.6832 156.535 19.6258 156.65 19.511C156.766 19.3962 156.823 19.247 156.823 19.0634C156.823 18.9073 156.782 18.7718 156.699 18.657C156.616 18.5422 156.478 18.4711 156.285 18.4435L155.249 18.2369C155.074 18.2002 154.945 18.1061 154.862 17.9545C154.779 17.803 154.738 17.5987 154.738 17.3416V12.4931C154.738 11.9513 154.77 11.506 154.835 11.157C154.899 10.8081 154.993 10.5487 155.118 10.3788C155.242 10.2089 155.387 10.124 155.553 10.124C155.718 10.124 155.838 10.1837 155.912 10.303C155.985 10.4224 156.027 10.5877 156.036 10.7989L156.05 11.3499C156.068 11.9743 156.241 12.4564 156.568 12.7961C156.894 13.1359 157.399 13.3058 158.08 13.3058C158.779 13.3058 159.35 13.0579 159.792 12.562C160.234 12.0661 160.455 11.2902 160.455 10.2342C160.455 9.16896 160.243 8.37466 159.82 7.85124C159.396 7.32782 158.789 7.06612 157.997 7.06612C157.343 7.06612 156.74 7.26584 156.188 7.66529C155.635 8.06474 155.191 8.67539 154.855 9.49725C154.799 9.63422 154.748 9.77726 154.701 9.92635L154.677 10.0057L154.572 7.86501C154.548 7.61198 154.503 7.42787 154.438 7.31269L154.413 7.27273C154.335 7.16253 154.218 7.10744 154.061 7.10744C153.951 7.10744 153.817 7.1258 153.661 7.16253C153.504 7.19927 153.311 7.26354 153.081 7.35537L149.159 8.47108C148.938 8.55372 148.781 8.65243 148.689 8.76722C148.597 8.882 148.551 9.01286 148.551 9.15978C148.551 9.28834 148.581 9.39394 148.641 9.47658C148.701 9.55923 148.795 9.63728 148.924 9.71074L149.283 9.75207C149.403 9.80716 149.488 9.88292 149.538 9.97934C149.589 10.0758 149.614 10.2342 149.614 10.4545V17.4518C149.614 17.7273 149.591 17.9247 149.545 18.0441C149.499 18.1635 149.417 18.2507 149.297 18.3058L148.979 18.4298C148.86 18.5124 148.765 18.6019 148.696 18.6983C148.627 18.7948 148.593 18.9164 148.593 19.0634C148.593 19.2562 148.65 19.4077 148.765 19.5179C148.88 19.6281 149.039 19.6832 149.242 19.6832H156.146ZM170.688 18.8843C169.813 19.6281 168.557 20 166.918 20C166.366 20 165.908 19.9495 165.544 19.8485C165.18 19.7475 164.886 19.6465 164.66 19.5455C164.435 19.4444 164.253 19.3939 164.115 19.3939C163.977 19.3939 163.795 19.4444 163.569 19.5455L162.892 19.8485C162.667 19.9495 162.476 20 162.319 20C162.181 20 162.052 19.9541 161.933 19.8623C161.813 19.7704 161.721 19.5868 161.657 19.3113L161.228 16.5702C161.146 16.2213 161.132 15.9275 161.187 15.6887C161.242 15.45 161.367 15.2938 161.56 15.2204C161.762 15.1286 161.963 15.124 162.161 15.2066C162.359 15.2893 162.536 15.4362 162.692 15.6474C163.217 16.4463 163.691 17.0753 164.115 17.5344C164.538 17.9936 164.95 18.3173 165.351 18.5055C165.751 18.6938 166.172 18.7879 166.614 18.7879C167.084 18.7879 167.434 18.6777 167.664 18.4573C167.894 18.2369 168.009 17.9568 168.009 17.6171C168.009 17.36 167.942 17.1258 167.809 16.9146C167.675 16.7034 167.431 16.5083 167.077 16.3292C166.722 16.1501 166.214 15.9734 165.551 15.7989C164.529 15.5418 163.682 15.2066 163.01 14.7934C162.338 14.3802 161.838 13.8843 161.512 13.3058C161.185 12.7273 161.021 12.0523 161.021 11.281C161.021 10.4086 161.24 9.65794 161.677 9.02893C162.115 8.39991 162.713 7.91552 163.472 7.57576C164.232 7.236 165.086 7.06612 166.034 7.06612C166.605 7.06612 167.07 7.12121 167.429 7.23141C167.788 7.3416 168.067 7.45179 168.264 7.56198C168.462 7.67218 168.612 7.72727 168.713 7.72727C168.824 7.72727 168.987 7.67447 169.204 7.56887C169.42 7.46327 169.639 7.35996 169.859 7.25895C170.08 7.15794 170.265 7.10744 170.412 7.10744C170.578 7.10744 170.711 7.16253 170.812 7.27273C170.914 7.38292 170.983 7.57117 171.02 7.83747L171.379 10.3719C171.443 10.7392 171.452 11.0216 171.406 11.219C171.36 11.4164 171.24 11.5427 171.047 11.5978C170.891 11.6345 170.725 11.6047 170.55 11.5083C170.375 11.4118 170.2 11.258 170.025 11.0468C169.353 10.0459 168.739 9.33884 168.182 8.92562C167.625 8.5124 167.033 8.30579 166.407 8.30579C165.956 8.30579 165.615 8.4022 165.385 8.59504C165.155 8.78788 165.04 9.0404 165.04 9.35262C165.04 9.56382 165.091 9.76125 165.192 9.9449C165.293 10.1286 165.48 10.3007 165.751 10.4614C166.023 10.6221 166.407 10.7805 166.904 10.9366C168.239 11.3407 169.275 11.77 170.011 12.2245C170.748 12.6791 171.263 13.2002 171.558 13.7879C171.853 14.3756 172 15.0597 172 15.8402C172 17.1258 171.563 18.1405 170.688 18.8843Z" fill="#333D4B"/>
</svg>
